<svg xmlns="http://www.w3.org/2000/svg" width="90.652" height="84.609" viewBox="0 0 90.652 84.609">
    <defs>
        <style>
            .prefix__cls-1{fill:#d92344}
        </style>
    </defs>
    <g id="prefix__chat" transform="translate(0 -2)">
        <path id="prefix__Path_198" d="M18.043 20a6.043 6.043 0 1 0 6.043 6.043A6.05 6.05 0 0 0 18.043 20zm0 9.065a3.022 3.022 0 1 1 3.022-3.022 3.025 3.025 0 0 1-3.022 3.022z" class="prefix__cls-1" data-name="Path 198" transform="translate(6.13 9.196)"/>
        <path id="prefix__Path_199" d="M32.043 20a6.043 6.043 0 1 0 6.043 6.043A6.05 6.05 0 0 0 32.043 20zm0 9.065a3.022 3.022 0 1 1 3.022-3.022 3.025 3.025 0 0 1-3.022 3.022z" class="prefix__cls-1" data-name="Path 199" transform="translate(13.283 9.196)"/>
        <path id="prefix__Path_200" d="M46.043 20a6.043 6.043 0 1 0 6.043 6.043A6.05 6.05 0 0 0 46.043 20zm0 9.065a3.022 3.022 0 1 1 3.022-3.022 3.025 3.025 0 0 1-3.022 3.022z" class="prefix__cls-1" data-name="Path 200" transform="translate(20.435 9.196)"/>
        <path id="prefix__Path_201" d="M81.587 2H9.065A9.187 9.187 0 0 0 0 11.065v49.859a9.187 9.187 0 0 0 9.065 9.065h12.087V85.1a1.511 1.511 0 0 0 .967 1.41 1.482 1.482 0 0 0 .544.1 1.508 1.508 0 0 0 1.118-.494L38.44 69.989h43.147a9.187 9.187 0 0 0 9.065-9.065V11.065A9.187 9.187 0 0 0 81.587 2zm6.043 58.924a6.125 6.125 0 0 1-6.043 6.043H41.064l5.407-6.287a1.511 1.511 0 0 0-2.289-1.972l-7.527 8.752-12.481 13.729V68.478a1.509 1.509 0 0 0-1.511-1.511H9.065a6.125 6.125 0 0 1-6.043-6.043V11.065a6.125 6.125 0 0 1 6.043-6.043h72.522a6.125 6.125 0 0 1 6.043 6.043z" class="prefix__cls-1" data-name="Path 201"/>
    </g>
</svg>
