<svg width="35" height="35" viewBox="0 0 35 35" fill="none" xmlns="http://www.w3.org/2000/svg">
<path d="M9.39244 7.88252L13.4399 11.9333C14.3449 12.8389 14.4633 14.1956 13.7073 14.9522L13.1955 15.4644L5.86816 8.1312L6.37996 7.61898C7.13592 6.86269 8.48757 6.9772 9.39277 7.88287L9.39244 7.88252Z" fill="#366AF3"/>
<path d="M23.2297 25.5159C23.2257 25.5045 23.222 25.5006 23.2144 25.4929L20.3084 22.5845L23.2297 25.5159ZM19.8923 22.1681C19.8504 22.1335 19.8045 22.1029 19.751 22.0879C19.8158 22.1145 19.877 22.1528 19.9266 22.2024L20.3084 22.5845L20.3121 22.5806L19.934 22.2021C19.9226 22.1911 19.9076 22.1758 19.8923 22.1681L19.8923 22.1681Z" fill="#366AF3"/>
<path d="M23.0685 21.5719L27.12 25.6266C28.0213 26.536 28.1433 27.8889 27.3873 28.6455L26.8755 29.1578L23.2136 25.4928L20.3115 22.5808L19.9334 22.2024C19.9221 22.191 19.9068 22.1757 19.8915 22.1681L19.5439 21.8203L20.0557 21.3081C20.812 20.5515 22.1675 20.67 23.0686 21.572L23.0685 21.5719Z" fill="#366AF3"/>
<path d="M19.9342 22.2027L20.3123 22.5811L23.2144 25.4932C23.222 25.5008 23.2257 25.5045 23.2297 25.5161L20.3084 22.5848L19.9266 22.2027C19.877 22.1531 19.8158 22.1148 19.751 22.0881C19.8045 22.1034 19.8501 22.1341 19.8923 22.1684C19.9076 22.176 19.9226 22.1913 19.9342 22.2027L19.9342 22.2027Z" fill="#366AF3"/>
<path d="M30.46 17.6106C30.1615 17.6106 29.92 17.3688 29.92 17.0701C29.92 10.4591 24.5462 5.0809 17.9404 5.0809C17.6419 5.0809 17.4004 4.83918 17.4004 4.54045C17.4004 4.24172 17.6419 4 17.9404 4C25.1415 4 31 9.86314 31 17.0701C31 17.3688 30.7585 17.6106 30.46 17.6106Z" fill="#366AF3"/>
<path d="M28.0216 17.612C27.7231 17.612 27.4816 17.3703 27.4816 17.0716C27.4816 11.8043 23.1999 7.51913 17.9375 7.51913C17.639 7.51913 17.3975 7.27741 17.3975 6.97868C17.3975 6.67996 17.639 6.43823 17.9375 6.43823C23.7959 6.43823 28.5616 11.2083 28.5616 17.0716C28.5616 17.3703 28.3201 17.612 28.0216 17.612Z" fill="#366AF3"/>
<path d="M25.5854 17.6122C25.287 17.6122 25.0454 17.3705 25.0454 17.0718C25.0454 13.1493 21.857 9.9581 17.9375 9.9581C17.639 9.9581 17.3975 9.71637 17.3975 9.41765C17.3975 9.11892 17.639 8.8772 17.9375 8.8772C22.4522 8.8772 26.1255 12.5532 26.1255 17.0718C26.1255 17.3705 25.8839 17.6122 25.5854 17.6122Z" fill="#366AF3"/>
<path d="M23.1498 17.6121C22.8513 17.6121 22.6098 17.3704 22.6098 17.0717C22.6098 14.494 20.5141 12.3966 17.9385 12.3966C17.64 12.3966 17.3984 12.1549 17.3984 11.8561C17.3984 11.5574 17.64 11.3157 17.9385 11.3157C21.11 11.3157 23.6898 13.8976 23.6898 17.0717C23.6898 17.3704 23.4483 17.6121 23.1498 17.6121Z" fill="#366AF3"/>
<path d="M26.1139 29.9244L25.817 30.2163C25.2825 30.7459 24.5263 31.0001 23.5976 31.0001C20.5682 31.0001 15.762 28.2815 11.2475 23.7634C8.49886 21.0179 6.30086 18.0349 5.0589 15.3756C3.74126 12.5438 3.64952 10.3496 4.80497 9.19289L5.10187 8.89575L12.6027 16.4026C12.6836 17.1051 13.3966 18.5428 14.9302 20.0775C16.4693 21.6179 17.9058 22.3365 18.613 22.4178L26.1139 29.9244Z" fill="#366AF3"/>
<path d="M19.8923 22.1684L19.9266 22.2027C19.877 22.1531 19.8158 22.1148 19.751 22.0881C19.8045 22.1034 19.8504 22.1341 19.8923 22.1684Z" fill="#366AF3"/>
<path d="M23.2299 25.5161L20.3086 22.5847L23.2146 25.4931C23.2223 25.5007 23.226 25.5047 23.2299 25.516L23.2299 25.5161Z" fill="#366AF3"/>
</svg>
