<svg width="35" height="35" viewBox="0 0 35 35" fill="none" xmlns="http://www.w3.org/2000/svg">
<path d="M27.5745 13.6558C27.4373 13.347 27.4373 13.0724 27.4373 12.832C26.4075 12.6261 22.9411 12.1111 18.8567 12.6948C14.7381 13.3125 9.96724 12.5919 8.62867 12.386C8.52573 12.9007 8.31983 13.3127 7.94229 13.5874C7.46179 13.9307 6.87836 13.9307 6.46656 13.862L5.84863 19.3189C6.60372 19.6623 7.11849 20.1083 7.35887 20.6575C7.49606 20.9663 7.49606 21.2409 7.49606 21.4469C8.66295 21.6527 12.7474 22.2362 16.7974 21.6872C21.6369 21.0008 25.172 21.6185 26.3047 21.8931C26.4076 21.3784 26.648 21.0008 26.991 20.7262C27.4715 20.3829 28.055 20.3829 28.4668 20.4516L29.0844 14.9944C28.3294 14.6511 27.8146 14.2048 27.5742 13.6559L27.5745 13.6558ZM20.0579 17.8431C19.8862 18.7699 19.4402 19.6279 18.7536 20.1769C18.2044 20.6574 17.5522 20.8978 16.9003 20.8978C16.7286 20.8978 16.5914 20.8978 16.4198 20.8636C15.596 20.7264 14.9096 20.2114 14.4978 19.3878C14.086 18.6328 13.9144 17.6717 14.086 16.745C14.4293 14.7885 16.0767 13.4157 17.7241 13.7245C19.3713 14.0334 20.401 15.8867 20.0579 17.8432L20.0579 17.8431Z" fill="#366AF3"/>
<path d="M17.5872 14.4109C16.3174 14.1705 15.0473 15.3032 14.7385 16.8821C14.6013 17.6714 14.7042 18.461 15.0473 19.0787C15.3906 19.6964 15.9054 20.0739 16.4888 20.2113C17.1065 20.3143 17.7244 20.1426 18.2392 19.6966C18.7884 19.2161 19.166 18.5297 19.3032 17.7401C19.6809 16.127 18.8914 14.651 17.5873 14.4108L17.5872 14.4109Z" fill="#366AF3"/>
<path d="M31.8306 11.5967C31.7276 11.4937 28.8101 9.22836 16.6601 10.1894C9.55542 10.7386 5.09353 9.02249 5.05921 9.02249C4.95626 8.98825 4.85331 8.98825 4.75036 9.05672C4.64741 9.12544 4.61318 9.19391 4.5787 9.2971L3 22.4082C3 22.5111 3.03424 22.6486 3.10295 22.717C3.24013 22.82 6.39801 25.4629 16.1797 24.4332C25.687 23.4379 29.84 25.2912 29.8743 25.3255C29.9085 25.3597 29.9772 25.3597 30.0115 25.3597C30.0802 25.3597 30.1144 25.3597 30.1831 25.3255C30.2861 25.2568 30.3548 25.1883 30.3548 25.0509L31.9679 11.9398C31.9679 11.8028 31.9335 11.6656 31.8305 11.5969L31.8306 11.5967ZM29.0847 20.898C29.0847 21.0009 29.016 21.1039 28.9131 21.1384C28.8101 21.2071 28.7072 21.2071 28.6384 21.1726C28.6384 21.1726 27.8491 20.9322 27.3686 21.2755C27.094 21.4472 26.9568 21.8248 26.9223 22.3053C26.9223 22.4082 26.8536 22.5112 26.7851 22.5799C26.7164 22.6141 26.6479 22.6486 26.5792 22.6486H26.4763C26.4421 22.6486 22.5294 21.5847 16.8661 22.374C11.9581 23.0604 7.0499 22.0994 6.98126 22.0651C6.87831 22.0309 6.8096 21.9964 6.74089 21.8935C6.70665 21.7905 6.67217 21.6876 6.74089 21.6189C6.77512 21.5502 7.11844 20.5549 5.33361 19.8685C5.19643 19.7998 5.09324 19.6626 5.12772 19.5252L5.8141 13.4501C5.8141 13.3471 5.88281 13.2442 5.98576 13.2097C6.05447 13.141 6.19166 13.141 6.26037 13.1755C6.26037 13.1755 7.04972 13.4158 7.53023 13.0725C7.80484 12.9009 7.94202 12.5233 7.97649 12.0428C7.97649 11.9398 8.0452 11.8369 8.11368 11.8024C8.18239 11.7337 8.28534 11.7337 8.38828 11.7337C8.457 11.7337 14.1543 12.7976 18.7536 12.1113C23.7648 11.3562 27.746 12.2829 27.9176 12.3172C28.0206 12.3514 28.0893 12.4201 28.158 12.4888C28.1922 12.5918 28.1922 12.6947 28.158 12.7634C28.158 12.7977 27.7805 13.8274 29.5653 14.5138C29.7025 14.5825 29.8057 14.7197 29.7712 14.8571L29.0847 20.898Z" fill="#366AF3"/>
</svg>
