<svg width="35" height="35" viewBox="0 0 35 35" fill="none" xmlns="http://www.w3.org/2000/svg">
<path d="M10.376 4.60034H9.67596L7.46816 7.02339L5.36816 9.44644H10.3762L10.376 4.60034Z" fill="#366AF3"/>
<path d="M18.0224 25.0618C18.0224 24.6849 18.0763 24.3079 18.13 23.9849H9.40701V22.9079H18.3995C18.6149 22.3155 18.8841 21.7771 19.261 21.2925H9.40701V20.2155H19.638V20.8079C20.6611 19.6234 22.115 18.8694 23.7841 18.654C23.9995 18.654 24.215 18.6001 24.4841 18.6001V4.6001H11.4531V10.5231H5.09961V30.4461H20.9306C19.1535 29.2616 18.0228 27.3231 18.0228 25.0616L18.0224 25.0618ZM9.40689 12.1388H21.7379V13.2158H9.40689V12.1388ZM9.40689 14.831H21.7379V15.908H9.40689V14.831ZM9.40689 17.5234H21.7379V18.6004H9.40689V17.5234Z" fill="#366AF3"/>
<path d="M24.4842 19.6772C24.2688 19.6772 24.0533 19.6772 23.8918 19.7311C21.1457 20.0002 19.0996 22.3156 19.0996 25.0616C19.0996 27.8075 21.1457 30.1231 23.892 30.3926C24.1074 30.3926 24.269 30.4465 24.4844 30.4465C27.4459 30.4465 29.8689 28.0235 29.8689 25.062C29.8687 22.1003 27.4457 19.677 24.4839 19.677L24.4842 19.6772ZM22.8688 27.7002L21.1457 25.2232L22.0072 24.6308L23.0303 26.1384L26.9611 22.8539L27.6611 23.6615L22.8688 27.7002Z" fill="#366AF3"/>
</svg>
