<svg width="35" height="35" viewBox="0 0 35 35" fill="none" xmlns="http://www.w3.org/2000/svg">
<path d="M20.4351 16.5165C17.5471 16.5165 15.1953 14.1675 15.1953 11.2774C15.1953 8.37814 17.5464 6.03003 20.4351 6.03003C23.3386 6.03003 25.6833 8.37764 25.6833 11.2774C25.6835 14.1677 23.3366 16.5165 20.4351 16.5165Z" fill="#366AF3"/>
<path d="M34.9998 29.0872C34.9998 29.0872 33.2032 23.3048 28.7595 18.7571C27.5102 17.4055 24.156 16.1153 21.8425 18.0636C17.8486 21.4268 17.8486 29.0874 17.8486 29.0874L34.9998 29.0872Z" fill="#366AF3"/>
<path d="M16.1231 29.076C16.1077 26.9852 14.4098 25.2942 12.3141 25.2942C10.6174 25.2942 9.18249 26.4029 8.68874 27.9348L2.0115 27.9362C1.94963 27.9362 1.63099 27.9238 1.35905 27.6858C1.10521 27.464 1.13773 27.1835 1.16366 26.9595C1.16855 26.9135 1.17344 26.872 1.16928 26.872L1.16855 26.8727C2.27656 23.0874 4.8086 17.1899 5.07442 16.684C5.16001 16.5366 5.37985 16.3725 5.59602 16.293L5.79777 16.2331L5.82223 16.3583C7.01025 22.0204 8.20753 23.9784 8.25886 24.061L8.39165 24.2745L9.99022 23.9414L6.2746 6L4.65331 6.336L4.63448 6.60867C4.62763 6.71235 4.47308 9.17396 5.49771 14.6701C5.49698 14.6708 5.49625 14.6708 5.49551 14.6715L5.55323 14.9699L5.30012 15.0687C4.90372 15.232 4.56429 15.4839 4.23318 15.8568C3.88862 16.2408 1.41948 21.944 0.0566169 26.5983C0.0468352 26.6352 0.0392543 26.6726 0.0309394 26.7416C-0.0663896 27.3913 0.0663983 27.9435 0.422452 28.3798C0.982455 29.062 1.88949 29.0824 1.99097 29.0824L10.2433 29.0802V29.076H16.1229L16.1231 29.076Z" fill="#366AF3"/>
</svg>
