<svg width="20" height="22" viewBox="0 0 20 22" fill="none" xmlns="http://www.w3.org/2000/svg">
<path d="M9.36364 11.942H7.21591C7.17372 11.942 7.13325 11.9598 7.10341 11.9917C7.07358 12.0235 7.05682 12.0666 7.05682 12.1116V13.1295C7.05682 13.1745 7.07358 13.2176 7.10341 13.2494C7.13325 13.2812 7.17372 13.2991 7.21591 13.2991H9.36364V15.5893C9.36364 15.6343 9.3804 15.6774 9.41023 15.7092C9.44007 15.7411 9.48053 15.7589 9.52273 15.7589H10.4773C10.5195 15.7589 10.5599 15.7411 10.5898 15.7092C10.6196 15.6774 10.6364 15.6343 10.6364 15.5893V13.2991H12.7841C12.8263 13.2991 12.8667 13.2812 12.8966 13.2494C12.9264 13.2176 12.9432 13.1745 12.9432 13.1295V12.1116C12.9432 12.0666 12.9264 12.0235 12.8966 11.9917C12.8667 11.9598 12.8263 11.942 12.7841 11.942H10.6364V9.65179C10.6364 9.60679 10.6196 9.56364 10.5898 9.53183C10.5599 9.50002 10.5195 9.48214 10.4773 9.48214H9.52273C9.48053 9.48214 9.44007 9.50002 9.41023 9.53183C9.3804 9.56364 9.36364 9.60679 9.36364 9.65179V11.942ZM16.8131 5.76484C16.9324 5.89208 17 6.06384 17 6.24408V19.3214C17 19.6968 16.7156 20 16.3636 20H3.63636C3.28437 20 3 19.6968 3 19.3214V1.67857C3 1.30324 3.28437 1 3.63636 1H12.0821C12.2511 1 12.4142 1.0721 12.5335 1.19933L16.8131 5.76484ZM15.5324 6.5558L11.7898 2.56496V6.5558H15.5324Z" fill="white"/>
</svg>
