<svg width="18" height="18" viewBox="0 0 18 18" fill="none" xmlns="http://www.w3.org/2000/svg">
<path d="M16.3125 2.8125H1.6875C1.37637 2.8125 1.125 3.06387 1.125 3.375V14.625C1.125 14.9361 1.37637 15.1875 1.6875 15.1875H16.3125C16.6236 15.1875 16.875 14.9361 16.875 14.625V3.375C16.875 3.06387 16.6236 2.8125 16.3125 2.8125ZM14.8922 4.72676L9.34629 9.04219C9.20918 9.14941 9.01758 9.14941 8.88047 9.04219L3.33281 4.72676C3.3119 4.71062 3.29656 4.68834 3.28895 4.66305C3.28133 4.63775 3.28182 4.61071 3.29035 4.58571C3.29888 4.5607 3.31502 4.539 3.3365 4.52363C3.35798 4.50826 3.38374 4.5 3.41016 4.5H14.8148C14.8413 4.5 14.867 4.50826 14.8885 4.52363C14.91 4.539 14.9261 4.5607 14.9347 4.58571C14.9432 4.61071 14.9437 4.63775 14.9361 4.66305C14.9284 4.68834 14.9131 4.71062 14.8922 4.72676Z" fill="#366AF3"/>
</svg>
