<svg width="40" height="40" viewBox="0 0 40 40" fill="none" xmlns="http://www.w3.org/2000/svg">
<path d="M32.1738 7.66005C33.1491 8.67443 33.1141 10.2886 32.0957 11.2596L23.3262 19.6221C24.3277 18.6764 25.9845 18.7221 26.9446 19.7533C27.8205 20.6939 27.7164 22.1288 26.7862 23.0071L25.5936 24.1335C26.7554 23.0364 28.7997 23.2738 29.614 24.8357C30.1791 25.92 29.895 27.2255 28.9969 28.0736L27.6956 29.3025C28.6585 28.393 30.2277 28.4007 31.2003 29.319L31.2033 29.322C32.2638 30.3233 32.2708 31.9401 31.2195 32.9332L26.3242 37.556C22.8595 40.8278 17.2187 40.8055 13.725 37.5059L9.75339 33.7556C7.02542 31.1796 6.33878 27.256 8.04987 24.0213C9.31269 21.7279 9.65816 19.4445 9.19089 16.8789C9.02976 16.0616 9.30167 15.2267 9.91873 14.6438C11.4004 13.2449 13.9547 13.9529 14.439 15.8972L15.208 20.3359L16.1025 19.4913L28.5884 7.58188C29.601 6.61633 31.2038 6.6511 32.1736 7.6597L32.1738 7.66005Z" fill="white"/>
<path d="M15.9297 6.87728L15.977 0.00439453L18.4544 0.0214844L18.4071 6.89437L15.9297 6.87728Z" fill="white"/>
<path d="M19.7227 7.29514L24.1562 2.8667L25.907 4.61967L21.4734 9.0481L19.7227 7.29514Z" fill="white"/>
<path d="M8.44629 4.80375L10.1931 3.04688L14.5687 7.39773L12.8219 9.15461L8.44629 4.80375Z" fill="white"/>
</svg>
