<svg width="38" height="38" viewBox="0 0 38 38" fill="none" xmlns="http://www.w3.org/2000/svg">
<path d="M19 0C8.50663 0 0 8.50653 0 19C0 29.4935 8.50653 38 19 38C29.4935 38 38 29.4935 38 19C38 8.50653 29.4935 0 19 0ZM19 7.12489C19.656 7.12489 20.1874 7.65668 20.1874 8.31229V18.3132L27.8135 22.729C28.3813 23.057 28.5867 23.7751 28.2587 24.3434C27.9307 24.9113 27.1939 25.098 26.6261 24.77C23.8893 23.1883 21.1338 21.5955 18.4066 20.0199C18.0521 19.8145 17.8127 19.4384 17.8127 18.9994V8.3119C17.8127 7.65586 18.3445 7.12451 19.0001 7.12451L19 7.12489Z" fill="white"/>
</svg>
