<svg width="40" height="40" viewBox="0 0 40 40" fill="none" xmlns="http://www.w3.org/2000/svg">
<path d="M31.3804 3.63623H27.7831V5.80254C27.7841 5.97857 27.7139 6.14749 27.5876 6.27182C27.4615 6.39649 27.2903 6.46575 27.1119 6.46474H12.8867C12.7083 6.46575 12.5371 6.39649 12.4111 6.27182C12.2847 6.14749 12.2145 5.97857 12.2156 5.80254V3.63623H8.61822C7.77926 3.63691 6.97489 3.96631 6.38176 4.55147C5.78862 5.13662 5.4548 5.9302 5.4541 6.758V36.8781C5.45479 37.7058 5.78866 38.4994 6.38176 39.0846C6.97485 39.6698 7.7792 39.9992 8.61822 39.9999H31.3809C32.2199 39.9992 33.0242 39.6698 33.6174 39.0846C34.2105 38.4995 34.5443 37.7059 34.545 36.8781V6.758C34.5443 5.93026 34.2105 5.13666 33.6174 4.55147C33.0243 3.96628 32.2194 3.63692 31.3804 3.63623Z" fill="white"/>
<path d="M14.4883 0H25.5846V4.55771H14.4883V0Z" fill="white"/>
<path d="M14.5442 21.1098C14.0694 20.6087 13.2782 20.5873 12.777 21.0621C12.2759 21.5369 12.2545 22.328 12.7293 22.8292L14.5442 21.1098ZM18.6606 27.2726L17.7532 28.1322C17.9893 28.3814 18.3174 28.5226 18.6606 28.5226C19.0039 28.5226 19.332 28.3814 19.5681 28.1322L18.6606 27.2726ZM28.1805 19.0413C28.6553 18.5402 28.6339 17.749 28.1328 17.2742C27.6316 16.7994 26.8404 16.8208 26.3656 17.322L28.1805 19.0413ZM12.7293 22.8292L17.7532 28.1322L19.5681 26.4129L14.5442 21.1098L12.7293 22.8292ZM19.5681 28.1322L28.1805 19.0413L26.3656 17.322L17.7532 26.4129L19.5681 28.1322Z" fill="#366AF3"/>
</svg>
