<svg width="40" height="40" viewBox="0 0 40 40" fill="none" xmlns="http://www.w3.org/2000/svg">
<path d="M32.3619 16.7999H31.1432V11.1436C31.1432 4.99986 26.1432 0 19.9996 0C13.8495 0 8.84961 5 8.84961 11.1436V16.7999H7.63697C5.89311 16.7999 4.47461 18.2186 4.47461 19.9622V36.8372C4.47461 38.5811 5.8934 39.9996 7.63697 39.9996H32.362C34.1058 39.9996 35.5243 38.5808 35.5243 36.8372V19.9622C35.5249 18.2186 34.1061 16.7999 32.3622 16.7999H32.3619ZM21.4305 34.1813H18.5616L18.7929 30.2689C18.7991 30.1501 18.7366 30.0376 18.6305 29.9815C17.693 29.4754 17.1118 28.5067 17.1118 27.4564C17.1118 25.8627 18.4056 24.5688 19.9994 24.5688C21.587 24.5688 22.8805 25.8626 22.8805 27.4564C22.8805 28.5063 22.2993 29.4751 21.3618 29.9815C21.2555 30.0379 21.193 30.1503 21.1994 30.2689L21.4305 34.1813ZM19.9991 4.11271C23.8741 4.11271 27.0304 7.269 27.0304 11.144V16.8003H12.9618V11.144C12.9618 7.269 16.1181 4.11271 19.9992 4.11271H19.9991Z" fill="white"/>
</svg>
