<svg width="18" height="16" viewBox="0 0 18 16" fill="none" xmlns="http://www.w3.org/2000/svg">
<path d="M3.84 15C4.26667 14.2667 4.68667 13.5467 5.1 12.84C5.51333 12.1267 5.98667 11.3167 6.52 10.41L9.42 5.45C9.78667 4.83 10.12 4.26 10.42 3.74C10.7267 3.21333 11.02 2.71 11.3 2.23C11.5867 1.74333 11.8767 1.24667 12.17 0.739999H14.45C14.1567 1.24667 13.8667 1.74333 13.58 2.23C13.3 2.71 13.0067 3.21333 12.7 3.74C12.3933 4.26 12.06 4.83 11.7 5.45L8.8 10.41C8.26667 11.3167 7.79333 12.1267 7.38 12.84C6.96667 13.5467 6.54333 14.2667 6.11 15H3.84ZM4.49 7.68C3.72333 7.68 3.04667 7.53667 2.46 7.25C1.88 6.95667 1.42333 6.54 1.09 6C0.763333 5.46 0.6 4.81667 0.6 4.07C0.6 3.38333 0.763333 2.77 1.09 2.23C1.42333 1.68333 1.88333 1.25333 2.47 0.94C3.05667 0.619999 3.73333 0.459999 4.5 0.459999C5.26667 0.459999 5.94 0.619999 6.52 0.94C7.10667 1.25333 7.56333 1.68333 7.89 2.23C8.22333 2.77 8.39 3.38333 8.39 4.07C8.39 4.81667 8.22333 5.46 7.89 6C7.56333 6.54 7.10667 6.95667 6.52 7.25C5.94 7.53667 5.26333 7.68 4.49 7.68ZM4.49 6.05C5.11667 6.05 5.60333 5.87667 5.95 5.53C6.29667 5.18333 6.47 4.70333 6.47 4.09C6.47 3.71 6.39 3.37 6.23 3.07C6.07667 2.77 5.85333 2.53333 5.56 2.36C5.26667 2.18667 4.91333 2.1 4.5 2.1C3.88667 2.1 3.4 2.28667 3.04 2.66C2.68667 3.03333 2.51 3.51 2.51 4.09C2.51 4.70333 2.68667 5.18333 3.04 5.53C3.4 5.87667 3.88333 6.05 4.49 6.05ZM13.81 15.25C13.0367 15.25 12.3567 15.1067 11.77 14.82C11.19 14.5267 10.7333 14.11 10.4 13.57C10.0733 13.0233 9.91 12.38 9.91 11.64C9.91 10.9533 10.0733 10.34 10.4 9.8C10.7333 9.25333 11.1933 8.82333 11.78 8.51C12.3667 8.19 13.0433 8.03 13.81 8.03C14.5833 8.03 15.26 8.19 15.84 8.51C16.4267 8.82333 16.8833 9.25333 17.21 9.8C17.5367 10.34 17.7 10.9533 17.7 11.64C17.7 12.38 17.5367 13.0233 17.21 13.57C16.8833 14.11 16.4267 14.5267 15.84 14.82C15.2533 15.1067 14.5767 15.25 13.81 15.25ZM13.81 13.62C14.43 13.62 14.9133 13.4467 15.26 13.1C15.6133 12.7467 15.79 12.2667 15.79 11.66C15.79 11.28 15.71 10.94 15.55 10.64C15.39 10.34 15.1633 10.1033 14.87 9.93C14.5767 9.75667 14.2233 9.67 13.81 9.67C13.1967 9.67 12.71 9.85667 12.35 10.23C11.9967 10.5967 11.82 11.0733 11.82 11.66C11.82 12.2667 11.9967 12.7467 12.35 13.1C12.71 13.4467 13.1967 13.62 13.81 13.62Z" fill="white"/>
</svg>
