<svg width="24" height="24" viewBox="0 0 24 24" fill="none" xmlns="http://www.w3.org/2000/svg">
<path d="M6.72404 17.566L6.72318 17.5652C3.83933 14.7965 1.83894 11.271 0.96442 7.41516L0.964162 7.41403L0.964169 7.41402C0.857879 6.91868 0.883976 6.40497 1.03991 5.92238C1.19578 5.44002 1.47605 5.00517 1.85351 4.65953L4.39993 2.26703L4.40057 2.26643L4.40057 2.26643C4.54097 2.13683 4.70763 2.03771 4.88963 1.97542C5.07162 1.91312 5.26496 1.88901 5.45705 1.90461L5.45909 1.90477L5.45909 1.90479C5.65827 1.92508 5.85059 1.98772 6.02254 2.08843C6.1945 2.18914 6.34197 2.32553 6.45444 2.48813L9.638 7.08125L9.6389 7.08255L9.63889 7.08256C9.77034 7.27878 9.83396 7.51131 9.82005 7.74587C9.80614 7.98042 9.71547 8.20411 9.56183 8.38407L9.5617 8.38422L8.00547 10.1999C8.63487 11.5401 9.51887 12.7521 10.611 13.7715L10.6125 13.773L10.6125 13.773C11.6996 14.8314 12.9822 15.6794 14.3924 16.272L16.3266 14.7725L16.3268 14.7724C16.509 14.6318 16.7305 14.5488 16.9618 14.5343C17.1931 14.5197 17.4235 14.5742 17.6226 14.6906L17.6255 14.6923L17.6255 14.6924L22.4313 17.7246C22.6085 17.8282 22.7596 17.9696 22.8734 18.1384C22.9875 18.3077 23.061 18.5003 23.0882 18.7015C23.1154 18.9028 23.0955 19.1075 23.0302 19.3001C22.9649 19.4928 22.8558 19.6683 22.7114 19.8136L22.7099 19.815L22.7099 19.815L20.2269 22.214C20.2269 22.214 20.2268 22.2141 20.2268 22.2141C19.9353 22.4972 19.5894 22.7211 19.2092 22.8731C18.829 23.0251 18.4219 23.1022 18.0112 23.1C18.0111 23.1 18.011 23.1 18.0109 23.1L18.0115 23C17.7973 22.9994 17.5839 22.9765 17.3748 22.9316L6.72404 17.566ZM6.72404 17.566C9.6701 20.3281 13.3549 22.2218 17.3544 23.0295L6.72404 17.566ZM5.33129 3.38698L8.31523 7.66029L6.64843 9.60674C6.56241 9.69599 6.50091 9.80541 6.47002 9.92476C6.43886 10.0452 6.43996 10.1714 6.47323 10.2913L6.47267 10.2915L6.47665 10.3015C7.15737 12.0156 8.2256 13.5575 9.6015 14.8122C10.9319 16.1309 12.5441 17.1463 14.3229 17.7861L14.3228 17.7862L14.3274 17.7876C14.4417 17.8226 14.563 17.8298 14.6808 17.8086C14.7985 17.7873 14.9094 17.7383 15.0036 17.6655L15.0039 17.6653L17.0751 16.055L21.5497 18.8771L19.1581 21.1877L19.158 21.1878C18.9643 21.3756 18.7256 21.5136 18.4633 21.5894C18.2011 21.6652 17.9236 21.6762 17.6558 21.6216L17.6556 21.6216C13.9271 20.8697 10.4923 19.1053 7.74639 16.5318C5.07473 13.9549 3.22496 10.6782 2.42024 7.09774C2.36426 6.84738 2.37598 6.58712 2.4543 6.34248C2.53263 6.09781 2.67493 5.87699 2.86748 5.70184L2.86749 5.70185L2.86867 5.70075L5.33129 3.38698Z" fill="white" stroke="white" stroke-width="0.2"/>
</svg>
