<svg width="24" height="24" viewBox="0 0 24 24" fill="none" xmlns="http://www.w3.org/2000/svg">
<path d="M20.2938 18.3216C19.8423 17.1989 19.1871 16.1792 18.3646 15.3191C17.5446 14.4566 16.5733 13.7689 15.5042 13.294C15.4947 13.2889 15.4851 13.2864 15.4755 13.2814C16.9667 12.1508 17.9361 10.309 17.9361 8.23116C17.9361 4.78894 15.2792 2 12 2C8.72077 2 6.06387 4.78894 6.06387 8.23116C6.06387 10.309 7.03328 12.1508 8.52449 13.2839C8.51492 13.2889 8.50534 13.2915 8.49577 13.2965C7.42343 13.7714 6.46121 14.4523 5.63541 15.3216C4.81371 16.1823 4.15857 17.2019 3.70617 18.3241C3.26173 19.4227 3.02204 20.6006 3.00006 21.794C2.99942 21.8208 3.0039 21.8475 3.01324 21.8724C3.02258 21.8974 3.03658 21.9202 3.05442 21.9394C3.07227 21.9586 3.0936 21.9738 3.11715 21.9842C3.1407 21.9946 3.16599 22 3.19155 22H4.62771C4.73303 22 4.8168 21.9121 4.8192 21.804C4.86707 19.8643 5.60908 18.0477 6.92078 16.6709C8.27795 15.2462 10.0803 14.4623 12 14.4623C13.9197 14.4623 15.722 15.2462 17.0792 16.6709C18.3909 18.0477 19.1329 19.8643 19.1808 21.804C19.1832 21.9146 19.267 22 19.3723 22H20.8085C20.834 22 20.8593 21.9946 20.8829 21.9842C20.9064 21.9738 20.9277 21.9586 20.9456 21.9394C20.9634 21.9202 20.9774 21.8974 20.9868 21.8724C20.9961 21.8475 21.0006 21.8208 20.9999 21.794C20.976 20.593 20.739 19.4246 20.2938 18.3216ZM12 12.5528C10.9013 12.5528 9.8673 12.103 9.08938 11.2864C8.31146 10.4698 7.88301 9.38442 7.88301 8.23116C7.88301 7.07789 8.31146 5.99246 9.08938 5.17588C9.8673 4.3593 10.9013 3.90955 12 3.90955C13.0987 3.90955 14.1327 4.3593 14.9106 5.17588C15.6885 5.99246 16.117 7.07789 16.117 8.23116C16.117 9.38442 15.6885 10.4698 14.9106 11.2864C14.1327 12.103 13.0987 12.5528 12 12.5528Z" fill="white"/>
</svg>
